<svg width="134" height="46" viewBox="0 0 134 46" fill="none" xmlns="http://www.w3.org/2000/svg">
<path fill-rule="evenodd" clip-rule="evenodd" d="M11.7944 0.115234C3.69801 0.115234 0.108207 4.93334 0.0927734 10.8877V32.476H5.95745V16.3329H13.3377V10.9094H5.95745V10.8877H5.91733C5.93585 7.90741 7.88354 5.48904 11.782 5.48904H16.412V0.115234H11.7944ZM121.939 22.8895C117.998 21.8278 116.065 20.0241 116.025 17.3853H116.019C116.019 13.4954 119.646 10.6766 124.64 10.6766C128.153 10.6766 132.011 12.0767 132.974 15.8952L127.239 17.2425L127.205 17.0159C127.045 16.1777 126.693 15.0694 124.597 15.0694C122.865 15.0694 122.078 15.9976 122.078 16.8606C122.109 17.8168 123.27 18.5339 125.844 19.1766L125.858 19.1799C129.589 20.0669 133.808 21.0697 133.854 25.609C133.893 27.2678 133.249 28.8691 132.073 30.0328C130.409 31.7185 127.751 32.684 124.77 32.684C120.853 32.684 116.757 30.9269 115.787 27.0401L121.627 25.6711L121.646 25.8853C121.877 28.226 124.544 28.2912 124.853 28.2912C125.752 28.3239 126.627 28.0032 127.295 27.3972C127.625 27.0776 127.809 26.6349 127.804 26.174C127.804 24.6533 126.172 24.1626 122.252 22.9838L122.248 22.9826L121.939 22.8895ZM107.574 12.2816V22.4393C107.574 25.2333 106.268 26.7856 103.691 26.7856C101.113 26.7856 99.8078 25.2333 99.8078 22.4393V10.9094L93.9431 12.2785V22.4393C93.9431 28.4899 97.8632 32.684 103.7 32.684C105.034 32.6503 106.351 32.3682 107.583 31.852V35.5774C107.583 39.0978 105.598 40.054 103.879 40.054H102.441V45.9525H103.879C109.796 45.9525 113.469 41.9757 113.469 35.5681V10.8877L107.574 12.2816ZM40.4356 22.4393V12.2816L46.325 10.9094V13.5637V35.5805C46.325 41.9881 42.6487 45.9649 36.7347 45.9649H35.2932V40.0664H36.7316C38.4478 40.0664 40.4356 39.1102 40.4356 35.5898V31.8645C39.2046 32.3757 37.8902 32.6535 36.5587 32.684C30.7249 32.684 26.8018 28.4899 26.8018 22.4393V12.2785L32.6664 10.9094V22.4393C32.6664 25.2333 33.969 26.7856 36.5495 26.7856C39.1299 26.7856 40.4356 25.2333 40.4356 22.4393ZM85.2572 22.4393V12.2816L91.1373 10.9094V22.4393C91.1373 28.4775 87.2141 32.684 81.3803 32.684C75.5465 32.684 71.6233 28.4899 71.6233 22.4393V12.2785L77.488 10.9094V22.4393C77.488 25.2333 78.7937 26.7856 81.3711 26.7856C83.9484 26.7856 85.2572 25.2333 85.2572 22.4393ZM18.2548 1.48119L24.104 0.115234H24.1194V32.476H18.2548V1.48119ZM54.872 21.6912C54.872 18.8754 56.6437 16.5906 59.2643 16.5906C61.8849 16.5906 63.6597 18.8754 63.6597 21.6912C63.6597 24.5069 61.8849 26.7887 59.2643 26.7887C56.6437 26.7887 54.872 24.5069 54.872 21.6912ZM49.0258 1.48119L55.0911 0.115234H55.1158V11.6172C56.4125 11.0001 57.8298 10.6819 59.2643 10.6859C64.9191 10.6859 69.509 15.6158 69.509 21.6912C69.509 27.7666 64.9191 32.6964 59.2643 32.6964C53.6095 32.6964 49.0258 27.7666 49.0258 21.6912V1.48119Z" fill="#2A7CC5"/>
<mask id="mask0" mask-type="alpha" maskUnits="userSpaceOnUse" x="0" y="0" width="134" height="46">
<path fill-rule="evenodd" clip-rule="evenodd" d="M11.7944 0.115234C3.69801 0.115234 0.108207 4.93334 0.0927734 10.8877V32.476H5.95745V16.3329H13.3377V10.9094H5.95745V10.8877H5.91733C5.93585 7.90741 7.88354 5.48904 11.782 5.48904H16.412V0.115234H11.7944ZM121.939 22.8895C117.998 21.8278 116.065 20.0241 116.025 17.3853H116.019C116.019 13.4954 119.646 10.6766 124.64 10.6766C128.153 10.6766 132.011 12.0767 132.974 15.8952L127.239 17.2425L127.205 17.0159C127.045 16.1777 126.693 15.0694 124.597 15.0694C122.865 15.0694 122.078 15.9976 122.078 16.8606C122.109 17.8168 123.27 18.5339 125.844 19.1766L125.858 19.1799C129.589 20.0669 133.808 21.0697 133.854 25.609C133.893 27.2678 133.249 28.8691 132.073 30.0328C130.409 31.7185 127.751 32.684 124.77 32.684C120.853 32.684 116.757 30.9269 115.787 27.0401L121.627 25.6711L121.646 25.8853C121.877 28.226 124.544 28.2912 124.853 28.2912C125.752 28.3239 126.627 28.0032 127.295 27.3972C127.625 27.0776 127.809 26.6349 127.804 26.174C127.804 24.6533 126.172 24.1626 122.252 22.9838L122.248 22.9826L121.939 22.8895ZM107.574 12.2816V22.4393C107.574 25.2333 106.268 26.7856 103.691 26.7856C101.113 26.7856 99.8078 25.2333 99.8078 22.4393V10.9094L93.9431 12.2785V22.4393C93.9431 28.4899 97.8632 32.684 103.7 32.684C105.034 32.6503 106.351 32.3682 107.583 31.852V35.5774C107.583 39.0978 105.598 40.054 103.879 40.054H102.441V45.9525H103.879C109.796 45.9525 113.469 41.9757 113.469 35.5681V10.8877L107.574 12.2816ZM40.4356 22.4393V12.2816L46.325 10.9094V13.5637V35.5805C46.325 41.9881 42.6487 45.9649 36.7347 45.9649H35.2932V40.0664H36.7316C38.4478 40.0664 40.4356 39.1102 40.4356 35.5898V31.8645C39.2046 32.3757 37.8902 32.6535 36.5587 32.684C30.7249 32.684 26.8018 28.4899 26.8018 22.4393V12.2785L32.6664 10.9094V22.4393C32.6664 25.2333 33.969 26.7856 36.5495 26.7856C39.1299 26.7856 40.4356 25.2333 40.4356 22.4393ZM85.2572 22.4393V12.2816L91.1373 10.9094V22.4393C91.1373 28.4775 87.2141 32.684 81.3803 32.684C75.5465 32.684 71.6233 28.4899 71.6233 22.4393V12.2785L77.488 10.9094V22.4393C77.488 25.2333 78.7937 26.7856 81.3711 26.7856C83.9484 26.7856 85.2572 25.2333 85.2572 22.4393ZM18.2548 1.48119L24.104 0.115234H24.1194V32.476H18.2548V1.48119ZM54.872 21.6912C54.872 18.8754 56.6437 16.5906 59.2643 16.5906C61.8849 16.5906 63.6597 18.8754 63.6597 21.6912C63.6597 24.5069 61.8849 26.7887 59.2643 26.7887C56.6437 26.7887 54.872 24.5069 54.872 21.6912ZM49.0258 1.48119L55.0911 0.115234H55.1158V11.6172C56.4125 11.0001 57.8298 10.6819 59.2643 10.6859C64.9191 10.6859 69.509 15.6158 69.509 21.6912C69.509 27.7666 64.9191 32.6964 59.2643 32.6964C53.6095 32.6964 49.0258 27.7666 49.0258 21.6912V1.48119Z" fill="white"/>
</mask>
<g mask="url(#mask0)">
</g>
</svg>
