<?xml version="1.0" encoding="UTF-8"?>
<svg xmlns="http://www.w3.org/2000/svg" xmlns:xlink="http://www.w3.org/1999/xlink" width="300pt" height="240pt" viewBox="0 0 300 240" version="1.1">
<g id="surface1">
<path style=" stroke:none;fill-rule:nonzero;fill:rgb(100%,100%,100%);fill-opacity:1;" d="M 172.699219 61.019531 C 172.777344 59.789062 171.851562 58.71875 170.621094 58.621094 C 170.5 58.601562 170.375 58.601562 170.25 58.621094 L 97.480469 58.621094 C 96.269531 58.570312 95.234375 59.488281 95.136719 60.699219 C 95.039062 61.910156 95.917969 62.980469 97.121094 63.125 C 97.246094 63.144531 97.375 63.144531 97.5 63.125 L 170.285156 63.125 C 171.53125 63.203125 172.609375 62.265625 172.699219 61.019531 Z M 172.699219 61.019531 "/>
<path style=" stroke:none;fill-rule:nonzero;fill:rgb(100%,100%,100%);fill-opacity:1;" d="M 144.601562 178.984375 C 144.550781 179.582031 144.742188 180.175781 145.132812 180.628906 C 145.519531 181.085938 146.074219 181.367188 146.671875 181.414062 L 219.773438 181.414062 C 221.015625 181.515625 222.105469 180.589844 222.203125 179.347656 C 222.304688 178.101562 221.375 177.015625 220.132812 176.914062 L 147 176.914062 C 145.765625 176.828125 144.695312 177.753906 144.601562 178.984375 Z M 144.601562 178.984375 "/>
<path style=" stroke:none;fill-rule:nonzero;fill:rgb(100%,100%,100%);fill-opacity:1;" d="M 262.128906 151.679688 L 277.128906 89.628906 C 278.160156 85.261719 277.296875 81.132812 274.726562 78.007812 C 272.203125 75.007812 268.378906 73.300781 263.929688 73.300781 L 83.695312 73.300781 C 82.492188 73.363281 81.546875 74.355469 81.546875 75.5625 C 81.546875 76.765625 82.492188 77.757812 83.695312 77.820312 L 263.933594 77.820312 C 266.933594 77.820312 269.4375 78.894531 271.039062 80.820312 C 272.710938 82.835938 273.257812 85.621094 272.542969 88.621094 L 257.542969 150.671875 C 256.003906 157.171875 249.277344 162.460938 242.542969 162.460938 L 129.929688 162.460938 C 129.09375 162.417969 128.304688 162.839844 127.875 163.554688 C 127.445312 164.273438 127.445312 165.167969 127.875 165.886719 C 128.304688 166.601562 129.09375 167.023438 129.929688 166.980469 L 242.527344 166.980469 C 251.339844 166.992188 260.128906 160.117188 262.128906 151.679688 Z M 262.128906 151.679688 "/>
<path style=" stroke:none;fill-rule:nonzero;fill:rgb(100%,100%,100%);fill-opacity:1;" d="M 75.449219 73.285156 L 62.605469 76.277344 L 62.605469 143.957031 L 75.503906 143.957031 L 75.503906 73.285156 Z M 75.449219 73.285156 "/>
<path style=" stroke:none;fill-rule:nonzero;fill:rgb(100%,100%,100%);fill-opacity:1;" d="M 103.09375 144.46875 C 106.054688 144.390625 108.980469 143.769531 111.71875 142.636719 L 111.71875 150.871094 C 111.71875 158.628906 107.308594 160.738281 103.46875 160.738281 L 100.285156 160.738281 L 100.285156 173.773438 L 103.507812 173.773438 C 116.617188 173.773438 124.746094 164.992188 124.746094 150.871094 L 124.746094 96.425781 L 111.71875 99.425781 L 111.71875 121.835938 C 111.71875 127.996094 108.816406 131.4375 103.109375 131.4375 C 97.402344 131.4375 94.507812 128.011719 94.507812 121.835938 L 94.507812 96.445312 L 81.472656 99.445312 L 81.472656 121.855469 C 81.457031 135.179688 90.15625 144.46875 103.09375 144.46875 Z M 103.09375 144.46875 "/>
<path style=" stroke:none;fill-rule:nonzero;fill:rgb(100%,100%,100%);fill-opacity:1;" d="M 35.316406 108.683594 L 51.515625 108.683594 L 51.515625 96.875 L 35.316406 96.875 L 35.316406 96.820312 L 35.21875 96.820312 C 35.261719 90.324219 39.535156 85.03125 48.144531 85.03125 L 58.34375 85.03125 L 58.34375 73.285156 L 48.144531 73.285156 C 30.367188 73.285156 22.476562 83.808594 22.433594 96.804688 L 22.433594 143.957031 L 35.316406 143.957031 Z M 35.316406 108.683594 "/>
<path style=" stroke:none;fill-rule:nonzero;fill:rgb(100%,100%,100%);fill-opacity:1;" d="M 143.164062 144 L 146.933594 129.601562 L 155.730469 129.601562 C 158.722656 129.636719 161.703125 129.230469 164.578125 128.398438 C 167.15625 127.667969 169.566406 126.445312 171.679688 124.800781 C 173.671875 123.226562 175.300781 121.234375 176.441406 118.960938 C 177.648438 116.511719 178.253906 113.808594 178.199219 111.078125 C 178.199219 107.011719 177 103.757812 174.601562 101.320312 C 172.941406 99.609375 170.878906 98.339844 168.601562 97.632812 C 165.851562 96.824219 162.992188 96.441406 160.128906 96.503906 L 145.429688 96.503906 L 132.996094 143.941406 L 143.148438 143.941406 Z M 159.757812 105.960938 C 161.042969 105.921875 162.328125 106.09375 163.558594 106.46875 C 164.53125 106.789062 165.410156 107.339844 166.121094 108.070312 C 167.144531 109.121094 167.691406 110.542969 167.644531 112.007812 C 167.765625 114.492188 166.59375 116.863281 164.542969 118.277344 C 162.46875 119.746094 159.742188 120.480469 156.328125 120.480469 L 149.398438 120.480469 L 153.167969 105.976562 L 159.769531 105.976562 Z M 159.757812 105.960938 "/>
<path style=" stroke:none;fill-rule:nonzero;fill:rgb(100%,100%,100%);fill-opacity:1;" d="M 166.3125 143.957031 L 177.289062 143.957031 L 184.296875 133.320312 L 203.863281 133.320312 L 205.3125 143.957031 L 215.765625 143.957031 L 208.421875 96.160156 L 198.648438 96.160156 Z M 200.550781 108.515625 L 202.65625 124.199219 L 190.363281 124.199219 Z M 200.550781 108.515625 "/>
<path style=" stroke:none;fill-rule:nonzero;fill:rgb(100%,100%,100%);fill-opacity:1;" d="M 226.589844 125.257812 L 221.695312 143.957031 L 231.886719 143.957031 L 236.574219 126.199219 L 261.898438 96.523438 L 249.605469 96.523438 L 233.730469 116.179688 L 228.304688 96.523438 L 217.007812 96.523438 Z M 226.589844 125.257812 "/>
</g>
</svg>
