<?xml version="1.0" encoding="UTF-8"?>
<svg xmlns="http://www.w3.org/2000/svg" xmlns:xlink="http://www.w3.org/1999/xlink" width="99pt" height="80pt" viewBox="0 0 99 80" version="1.1">
<g id="surface1">
<path style=" stroke:none;fill-rule:nonzero;fill:rgb(100%,100%,100%);fill-opacity:1;" d="M 57.042969 20.339844 C 57.066406 19.929688 56.761719 19.574219 56.355469 19.539062 C 56.316406 19.53125 56.273438 19.53125 56.234375 19.539062 L 32.195312 19.539062 C 31.796875 19.523438 31.457031 19.828125 31.421875 20.234375 C 31.390625 20.636719 31.679688 20.992188 32.078125 21.042969 C 32.121094 21.046875 32.164062 21.046875 32.203125 21.042969 L 56.246094 21.042969 C 56.65625 21.066406 57.011719 20.753906 57.042969 20.339844 Z M 57.042969 20.339844 "/>
<path style=" stroke:none;fill-rule:nonzero;fill:rgb(100%,100%,100%);fill-opacity:1;" d="M 47.761719 59.660156 C 47.746094 59.859375 47.808594 60.058594 47.9375 60.210938 C 48.066406 60.363281 48.246094 60.457031 48.445312 60.46875 L 72.589844 60.46875 C 73 60.503906 73.359375 60.195312 73.390625 59.78125 C 73.425781 59.367188 73.117188 59.003906 72.707031 58.96875 L 48.554688 58.96875 C 48.144531 58.941406 47.792969 59.25 47.761719 59.660156 Z M 47.761719 59.660156 "/>
<path style=" stroke:none;fill-rule:nonzero;fill:rgb(100%,100%,100%);fill-opacity:1;" d="M 86.578125 50.5625 L 91.535156 29.875 C 91.875 28.421875 91.589844 27.042969 90.738281 26 C 89.90625 25 88.644531 24.433594 87.175781 24.433594 L 27.644531 24.433594 C 27.246094 24.453125 26.933594 24.785156 26.933594 25.1875 C 26.933594 25.589844 27.246094 25.917969 27.644531 25.9375 L 87.175781 25.9375 C 88.167969 25.9375 88.992188 26.296875 89.523438 26.9375 C 90.074219 27.613281 90.253906 28.539062 90.019531 29.539062 L 85.0625 50.222656 C 84.558594 52.390625 82.335938 54.15625 80.109375 54.15625 L 42.914062 54.15625 C 42.640625 54.140625 42.378906 54.28125 42.234375 54.519531 C 42.09375 54.757812 42.09375 55.054688 42.234375 55.296875 C 42.378906 55.53125 42.640625 55.675781 42.914062 55.660156 L 80.105469 55.660156 C 83.015625 55.664062 85.917969 53.375 86.578125 50.5625 Z M 86.578125 50.5625 "/>
<path style=" stroke:none;fill-rule:nonzero;fill:rgb(100%,100%,100%);fill-opacity:1;" d="M 24.921875 24.429688 L 20.679688 25.425781 L 20.679688 47.984375 L 24.9375 47.984375 L 24.9375 24.429688 Z M 24.921875 24.429688 "/>
<path style=" stroke:none;fill-rule:nonzero;fill:rgb(100%,100%,100%);fill-opacity:1;" d="M 34.050781 48.15625 C 35.03125 48.128906 35.996094 47.921875 36.898438 47.546875 L 36.898438 50.289062 C 36.898438 52.875 35.441406 53.578125 34.175781 53.578125 L 33.125 53.578125 L 33.125 57.925781 L 34.1875 57.925781 C 38.519531 57.925781 41.203125 55 41.203125 50.289062 L 41.203125 32.140625 L 36.898438 33.140625 L 36.898438 40.613281 C 36.898438 42.664062 35.941406 43.8125 34.054688 43.8125 C 32.171875 43.8125 31.214844 42.671875 31.214844 40.613281 L 31.214844 32.148438 L 26.910156 33.148438 L 26.910156 40.617188 C 26.90625 45.0625 29.777344 48.15625 34.050781 48.15625 Z M 34.050781 48.15625 "/>
<path style=" stroke:none;fill-rule:nonzero;fill:rgb(100%,100%,100%);fill-opacity:1;" d="M 11.664062 36.226562 L 17.015625 36.226562 L 17.015625 32.292969 L 11.664062 32.292969 L 11.664062 32.273438 L 11.632812 32.273438 C 11.644531 30.109375 13.058594 28.34375 15.902344 28.34375 L 19.269531 28.34375 L 19.269531 24.429688 L 15.902344 24.429688 C 10.03125 24.429688 7.421875 27.9375 7.410156 32.269531 L 7.410156 47.984375 L 11.664062 47.984375 Z M 11.664062 36.226562 "/>
<path style=" stroke:none;fill-rule:nonzero;fill:rgb(100%,100%,100%);fill-opacity:1;" d="M 47.285156 48 L 48.53125 43.199219 L 51.4375 43.199219 C 52.425781 43.210938 53.410156 43.078125 54.359375 42.800781 C 55.210938 42.554688 56.007812 42.148438 56.707031 41.601562 C 57.363281 41.074219 57.902344 40.410156 58.277344 39.65625 C 58.675781 38.835938 58.875 37.9375 58.859375 37.027344 C 58.859375 35.671875 58.460938 34.585938 57.667969 33.773438 C 57.121094 33.203125 56.441406 32.78125 55.6875 32.542969 C 54.777344 32.273438 53.835938 32.148438 52.890625 32.167969 L 48.035156 32.167969 L 43.925781 47.980469 L 47.28125 47.980469 Z M 52.765625 35.320312 C 53.191406 35.308594 53.617188 35.363281 54.023438 35.488281 C 54.34375 35.59375 54.632812 35.78125 54.867188 36.023438 C 55.207031 36.375 55.386719 36.847656 55.371094 37.335938 C 55.410156 38.164062 55.023438 38.953125 54.347656 39.425781 C 53.664062 39.914062 52.761719 40.160156 51.632812 40.160156 L 49.347656 40.160156 L 50.589844 35.324219 L 52.769531 35.324219 Z M 52.765625 35.320312 "/>
<path style=" stroke:none;fill-rule:nonzero;fill:rgb(100%,100%,100%);fill-opacity:1;" d="M 54.933594 47.984375 L 58.554688 47.984375 L 60.871094 44.4375 L 67.335938 44.4375 L 67.8125 47.984375 L 71.265625 47.984375 L 68.839844 32.054688 L 65.613281 32.054688 Z M 66.242188 36.171875 L 66.9375 41.398438 L 62.875 41.398438 Z M 66.242188 36.171875 "/>
<path style=" stroke:none;fill-rule:nonzero;fill:rgb(100%,100%,100%);fill-opacity:1;" d="M 74.839844 41.75 L 73.222656 47.984375 L 76.589844 47.984375 L 78.136719 42.066406 L 86.503906 32.175781 L 82.441406 32.175781 L 77.199219 38.726562 L 75.410156 32.175781 L 71.675781 32.175781 Z M 74.839844 41.75 "/>
</g>
</svg>
