<?xml version="1.0" encoding="utf-8"?>
<!-- Generator: Adobe Illustrator 24.0.1, SVG Export Plug-In . SVG Version: 6.00 Build 0)  -->
<svg version="1.1" id="Layer_1" xmlns="http://www.w3.org/2000/svg" xmlns:xlink="http://www.w3.org/1999/xlink" x="0px" y="0px"
	 viewBox="0 0 114 60" style="enable-background:new 0 0 114 60;" xml:space="preserve">
<style type="text/css">
	.st0{clip-path:url(#SVGID_2_);fill:url(#SVGID_3_);}
	.st1{fill:#FFFFFF;}
</style>
<g>
	<g>
		<g>
			<g>
				<defs>
					<path id="SVGID_1_" d="M5.7,0C2.55,0,0,2.56,0,5.72v48.54c0,3.12,2.55,5.7,5.64,5.74h102.71c3.12-0.04,5.64-2.58,5.64-5.74
						V5.72c0.04-3.15-2.53-5.72-5.68-5.72H5.7z"/>
				</defs>
				<clipPath id="SVGID_2_">
					<use xlink:href="#SVGID_1_"  style="overflow:visible;"/>
				</clipPath>
				
					<linearGradient id="SVGID_3_" gradientUnits="userSpaceOnUse" x1="-593.8171" y1="-396.7089" x2="-593.5126" y2="-396.7089" gradientTransform="matrix(372.3058 173.609 -173.609 372.3058 152209.7031 250792.6094)">
					<stop  offset="0" style="stop-color:#09BCE7"/>
					<stop  offset="0.1117" style="stop-color:#0099CF"/>
					<stop  offset="0.2484" style="stop-color:#0375B6"/>
					<stop  offset="0.3483" style="stop-color:#0461A9"/>
					<stop  offset="0.4" style="stop-color:#055AA4"/>
					<stop  offset="0.5121" style="stop-color:#64539F"/>
					<stop  offset="0.6424" style="stop-color:#964999"/>
					<stop  offset="0.7611" style="stop-color:#BA3B93"/>
					<stop  offset="0.864" style="stop-color:#D42A8F"/>
					<stop  offset="0.9471" style="stop-color:#E4188D"/>
					<stop  offset="1" style="stop-color:#EB0D8C"/>
				</linearGradient>
				<polygon class="st0" points="20.37,-43.87 136.93,10.7 93.65,103.87 -22.89,49.28 				"/>
			</g>
		</g>
	</g>
</g>
<g>
	<path class="st1" d="M63.93,10.47H39.06c-0.42,0-0.78-0.36-0.78-0.78s0.36-0.78,0.78-0.78h24.87c0.42,0,0.78,0.36,0.78,0.78
		C64.71,10.13,64.35,10.47,63.93,10.47"/>
	<path class="st1" d="M80.86,51.09H55.97c-0.42,0-0.78-0.36-0.78-0.78s0.36-0.78,0.78-0.78h24.87c0.42,0,0.78,0.36,0.78,0.78
		S81.28,51.09,80.86,51.09"/>
	<path class="st1" d="M88.63,46.11H50.88c-0.46,0-0.82-0.36-0.82-0.78c0-0.42,0.36-0.78,0.82-0.78h37.75c2.32,0,4.62-1.82,5.13-4.05
		l5.13-21.3c0.25-1.03,0.06-1.98-0.51-2.68c-0.53-0.66-1.41-1.03-2.43-1.03h-61.6c-0.46,0-0.82-0.36-0.82-0.78
		c0-0.42,0.36-0.78,0.82-0.78h61.6c1.54,0,2.81,0.57,3.69,1.61c0.89,1.08,1.18,2.49,0.84,3.99l-5.13,21.3
		C94.65,43.77,91.65,46.11,88.63,46.11"/>
	<polygon class="st1" points="27.15,14.99 27.15,38.23 31.52,38.23 31.52,13.98 31.52,13.98 	"/>
	<path class="st1" d="M48.35,21.91l-4.45,1.04v7.68c0,2.13-0.99,3.31-2.94,3.31c-1.96,0-2.94-1.18-2.94-3.31v-8.74l-4.45,1.04v7.68
		c0,4.6,2.96,7.77,7.41,7.77c1.08,0,2.07-0.3,2.94-0.63v2.81c0,2.68-1.5,3.38-2.81,3.38h-1.08v4.46h1.1c4.46,0,7.26-3.04,7.26-7.87
		V23.86l0,0v-2.01h-0.04V21.91z"/>
	<path class="st1" d="M13.39,22.04L13.39,22.04v16.17h4.41V26.12h5.55v-4.05H17.8v-0.04h-0.02c0-2.24,1.46-4.05,4.41-4.05h3.48
		v-4.01h-3.48C16.09,13.98,13.39,17.57,13.39,22.04"/>
	<path class="st1" d="M55.44,21.93h5.02c1.14,0,2.11,0.11,2.91,0.4c0.82,0.25,1.5,0.68,2.07,1.25c0.82,0.84,1.23,1.96,1.23,3.36
		c0,1.03-0.21,1.92-0.61,2.7s-0.93,1.46-1.61,2.01c-0.68,0.53-1.5,0.97-2.43,1.23c-0.93,0.27-1.96,0.42-3.04,0.42h-3l-1.29,4.92
		H51.2L55.44,21.93z M59.16,30.15c1.18,0,2.11-0.25,2.79-0.74C62.68,28.9,63,28.18,63,27.25c0-0.53-0.17-0.99-0.51-1.35
		c-0.25-0.25-0.53-0.42-0.87-0.53c-0.32-0.11-0.78-0.17-1.29-0.17h-2.24l-1.29,4.98L59.16,30.15L59.16,30.15z"/>
	<path class="st1" d="M73.62,21.81h3.32l2.53,16.42H75.9l-0.51-3.67H68.7l-2.39,3.67h-3.74L73.62,21.81z M75.01,31.44l-0.72-5.38
		l-3.48,5.38H75.01z"/>
	<polygon class="st1" points="83.16,31.8 79.93,21.93 83.77,21.93 85.63,28.67 91.06,21.93 95.26,21.93 86.58,32.13 85,38.23 
		81.51,38.23 	"/>
</g>
</svg>
