<svg id="Layer_1" data-name="Layer 1" xmlns="http://www.w3.org/2000/svg" width="500" height="400" viewBox="0 0 500 400">
  <defs>
    <style>
      .cls-1 {
        fill: #fff;
      }
    </style>
  </defs>
  <g id="Page-1">
    <g id="Master-Logos_flyPAY-white" data-name="Master-Logos/flyPAY-white">
      <path id="Path" class="cls-1" d="M287.83,101.7a3.77,3.77,0,0,0-3.46-4,2.15,2.15,0,0,0-.62,0H162.47a3.77,3.77,0,0,0-.6,7.51,2.22,2.22,0,0,0,.63,0H283.81A3.79,3.79,0,0,0,287.83,101.7Z"/>
      <path id="Path-2" data-name="Path" class="cls-1" d="M241,298.31a3.76,3.76,0,0,0,3.45,4.05H366.29a3.76,3.76,0,0,0,.6-7.5H245A3.75,3.75,0,0,0,241,298.31Z"/>
      <path id="Path-3" data-name="Path" class="cls-1" d="M436.88,252.8l25-103.42c1.72-7.28.28-14.16-4-19.37-4.21-5-10.58-7.84-18-7.84H139.49a3.77,3.77,0,0,0,0,7.53h300.4c5,0,9.17,1.79,11.84,5,2.79,3.36,3.7,8,2.51,13l-25,103.42c-2.57,10.83-13.78,19.65-25,19.65H216.55a3.77,3.77,0,1,0,0,7.53H404.21C418.9,278.32,433.55,266.86,436.88,252.8Z"/>
      <polygon id="Path-4" data-name="Path" class="cls-1" points="125.75 122.14 104.34 127.13 104.34 239.93 104.34 239.93 125.84 239.93 125.84 239.93 125.84 122.14 125.84 122.14 125.75 122.14"/>
      <path id="Path-5" data-name="Path" class="cls-1" d="M171.82,240.78a40.33,40.33,0,0,0,14.38-3.05v13.72c0,12.93-7.35,16.45-13.75,16.45h-5.31l0,21.72h5.37c21.85,0,35.4-14.63,35.4-38.17V160.71l-21.71,5v37.35c0,10.27-4.84,16-14.35,16s-14.34-5.71-14.34-16V160.74l-21.72,5v37.35C135.76,225.3,150.26,240.78,171.82,240.78Z"/>
      <path id="Path-6" data-name="Path" class="cls-1" d="M58.86,181.14h27V161.46h-27v-.09H58.7c.07-10.83,7.19-19.65,21.54-19.65l17,0V122.14h-17c-29.63,0-42.78,17.54-42.85,39.2v78.59H58.86Z"/>
      <path id="Shape" class="cls-1" d="M238.61,240l6.28-24h14.66a50.81,50.81,0,0,0,14.75-2,34.71,34.71,0,0,0,11.83-6,29,29,0,0,0,7.94-9.73A28.47,28.47,0,0,0,297,185.13q0-10.17-6-16.26A23.75,23.75,0,0,0,281,162.72a46.47,46.47,0,0,0-14.12-1.88H242.38L221.66,239.9l0,0h16.92Zm27.65-63.4a19.79,19.79,0,0,1,6.34.85,10.58,10.58,0,0,1,4.27,2.67,9,9,0,0,1,2.54,6.56,12,12,0,0,1-5.17,10.45c-3.46,2.45-8,3.67-13.69,3.67H249l6.28-24.17h11Z"/>
      <path id="Shape-2" data-name="Shape" class="cls-1" d="M277.19,239.93h18.29l11.68-17.73h32.61l2.42,17.73h17.42l-12.24-79.66H331.08Zm57.06-59.07L337.76,207H317.27Z"/>
      <polygon id="Path-7" data-name="Path" class="cls-1" points="377.65 208.76 369.49 239.93 386.48 239.93 394.29 210.33 436.5 160.87 436.47 160.87 416.01 160.87 389.55 193.63 380.51 160.87 361.68 160.87 361.68 160.87 377.65 208.76"/>
    </g>
  </g>
</svg>
