<svg width="346" height="229" viewBox="0 0 346 229" fill="none" xmlns="http://www.w3.org/2000/svg">
<path d="M218.65 39.8975H127.377V189.077H218.65V39.8975Z" fill="#FF5F00"/>
<path d="M136.778 114.5C136.767 100.135 140.021 85.9564 146.294 73.036C152.567 60.1157 161.695 48.7925 172.987 39.9235C159.001 28.9247 142.206 22.0852 124.52 20.1867C106.833 18.2882 88.9701 21.4073 72.9715 29.1875C56.9729 36.9676 43.4844 49.0951 34.0476 64.1836C24.6108 79.2722 19.6064 96.7132 19.6064 114.513C19.6064 132.313 24.6108 149.754 34.0476 164.843C43.4844 179.931 56.9729 192.059 72.9715 199.839C88.9701 207.619 106.833 210.738 124.52 208.84C142.206 206.941 159.001 200.102 172.987 189.103C161.692 180.231 152.562 168.904 146.288 155.979C140.015 143.053 136.763 128.869 136.778 114.5Z" fill="#EB001B"/>
<path d="M317.322 173.291V170.234H318.639V169.602H315.505V170.234H316.743V173.291H317.322ZM323.406 173.291V169.602H322.458L321.352 172.237L320.245 169.602H319.297V173.291H319.982V170.498L321.009 172.896H321.72L322.747 170.498V173.291H323.406Z" fill="#F79E1B"/>
<path d="M326.381 114.5C326.381 132.302 321.375 149.744 311.937 164.833C302.498 179.922 289.008 192.049 273.007 199.828C257.007 207.607 239.142 210.724 221.454 208.823C203.767 206.922 186.971 200.079 172.987 189.077C184.274 180.2 193.4 168.874 199.674 155.953C205.949 143.032 209.21 128.853 209.21 114.487C209.21 100.121 205.949 85.9426 199.674 73.0216C193.4 60.1005 184.274 48.7743 172.987 39.8974C186.971 28.8951 203.767 22.0523 221.454 20.1511C239.142 18.2498 257.007 21.3669 273.007 29.146C289.008 36.9251 302.498 49.0523 311.937 64.1413C321.375 79.2304 326.381 96.6725 326.381 114.474V114.5Z" fill="#F79E1B"/>
</svg>
