<svg width="598" height="189" viewBox="0 0 598 189" fill="none" xmlns="http://www.w3.org/2000/svg">
<g clip-path="url(#clip0)">
<path d="M597.995 185.956C583.065 185.956 568.135 185.956 552.973 185.956C551.329 178.218 549.564 170.641 548.162 163C547.589 159.827 546.551 158.597 542.932 158.651C524.879 158.877 506.827 158.823 488.774 158.683C486.037 158.662 484.956 159.547 484.128 161.975C481.646 169.249 478.92 176.459 476.139 183.636C475.764 184.607 474.506 185.945 473.656 185.956C457.38 186.096 441.115 186.053 424.365 186.053C427.41 178.865 430.301 172.001 433.237 165.159C454.213 116.203 475.201 67.2482 496.189 18.2822C500.736 7.68386 507.544 3.2373 519.274 3.2373C532.339 3.2373 545.404 3.2373 558.8 3.2373C560.102 9.20561 561.426 15.0876 562.684 20.9803C573.012 69.3636 583.308 117.747 593.658 166.13C594.982 172.325 596.549 178.477 598.006 184.65C597.995 185.093 597.995 185.524 597.995 185.956ZM539.07 121.039C534.27 98.536 529.536 76.3464 524.802 54.146C524.603 54.1136 524.416 54.0704 524.217 54.0381C515.974 76.2924 507.72 98.536 499.378 121.039C512.863 121.039 525.762 121.039 539.07 121.039Z" fill="url(#paint0_linear)"/>
<path d="M401.879 0C407.816 1.07926 413.808 1.96425 419.689 3.29174C425.052 4.50051 430.316 6.19495 436.021 7.78146C433.141 20.9376 430.338 33.77 427.59 46.3326C420.064 44.1741 412.87 41.6918 405.477 40.0945C395.358 37.9144 384.996 37.0834 374.878 39.8355C370.762 40.9579 366.602 43.1056 363.358 45.8254C357.807 50.477 357.73 57.1792 363.038 62.0682C366.701 65.4355 371.027 68.2092 375.363 70.7563C385.217 76.5519 395.557 81.592 405.124 87.7762C416.401 95.0612 424.622 105.088 426.343 118.632C429.4 142.592 420.34 161.468 399.761 174.819C386.817 183.215 372.174 186.96 356.913 188.352C335.605 190.295 314.728 187.953 294.369 181.413C293.001 180.97 291.677 180.431 290.341 179.891C289.944 179.729 289.602 179.449 288.995 179.082C291.875 165.915 294.755 152.715 297.712 139.16C301.177 140.638 304.444 142.128 307.765 143.434C323.666 149.704 340.097 152.564 357.112 149.445C361.537 148.636 366.061 146.725 369.813 144.265C377.956 138.922 378.74 128.885 371.325 122.615C366.447 118.492 360.588 115.448 355.037 112.135C346.364 106.965 337.139 102.562 328.929 96.7772C318.402 89.3627 310.789 79.4767 309.343 66.3313C307.18 46.6564 314.64 30.6726 330.088 18.2611C343.528 7.45769 359.484 2.66577 376.478 0.647556C377.427 0.53963 378.343 0.215852 379.269 0C386.806 0 394.343 0 401.879 0Z" fill="url(#paint1_linear)"/>
<path d="M226.817 3.40474C224.29 9.35146 221.896 15.0284 219.468 20.6945C196.295 74.7546 173.1 128.793 150.027 182.896C148.923 185.476 147.577 186.156 144.907 186.134C130.286 186.016 115.654 185.972 101.033 186.167C97.9324 186.21 96.9283 185.141 96.211 182.422C83.8191 135.172 71.2175 87.9648 58.9581 40.6824C56.707 32.0051 52.2049 26.08 43.7634 22.4429C30.2349 16.6149 16.1878 12.5245 1.86485 9.20037C1.22484 9.04927 0.59587 8.88738 0 8.74708C0.0662078 3.26444 0.0662078 3.26443 5.40697 3.26443C30.9963 3.26443 56.5856 3.25364 82.186 3.26443C94.3241 3.26443 103.086 10.1609 105.381 21.914C111.88 55.1768 118.236 88.472 124.658 121.756C124.934 123.213 125.254 124.66 125.685 126.71C126.347 125.491 126.81 124.8 127.108 124.055C142.998 84.727 158.899 45.4095 174.711 6.05972C175.572 3.91199 176.642 3.17809 179.015 3.19968C193.856 3.3184 208.709 3.25364 223.551 3.26443C224.5 3.26443 225.46 3.35078 226.817 3.40474Z" fill="url(#paint2_linear)"/>
<path d="M207.445 186.064C220.819 124.956 234.093 64.2802 247.401 3.45312C263.589 3.45312 279.589 3.45312 295.887 3.45312C293.868 12.7132 291.893 21.8005 289.907 30.8879C278.916 81.1275 267.893 131.367 257.034 181.639C256.284 185.136 255.015 186.237 251.308 186.172C238.022 185.924 224.725 186.075 211.428 186.075C210.237 186.064 209.045 186.064 207.445 186.064Z" fill="url(#paint3_linear)"/>
</g>
<defs>
<linearGradient id="paint0_linear" x1="33.4696" y1="97.9858" x2="594.852" y2="94.2096" gradientUnits="userSpaceOnUse">
<stop stop-color="#262860"/>
<stop offset="1" stop-color="#3D429B"/>
</linearGradient>
<linearGradient id="paint1_linear" x1="33.4637" y1="96.6087" x2="594.844" y2="92.8325" gradientUnits="userSpaceOnUse">
<stop stop-color="#262860"/>
<stop offset="1" stop-color="#3D429B"/>
</linearGradient>
<linearGradient id="paint2_linear" x1="33.4541" y1="94.9601" x2="594.836" y2="91.184" gradientUnits="userSpaceOnUse">
<stop stop-color="#262860"/>
<stop offset="1" stop-color="#3D429B"/>
</linearGradient>
<linearGradient id="paint3_linear" x1="33.467" y1="96.1983" x2="594.849" y2="92.4221" gradientUnits="userSpaceOnUse">
<stop stop-color="#262860"/>
<stop offset="1" stop-color="#3D429B"/>
</linearGradient>
<clipPath id="clip0">
<rect width="598" height="189" fill="white"/>
</clipPath>
</defs>
</svg>
